<?xml version="1.0" standalone="no"?>
<!DOCTYPE svg PUBLIC "-//W3C//DTD SVG 20010904//EN"
 "http://www.w3.org/TR/2001/REC-SVG-20010904/DTD/svg10.dtd">
<svg version="1.0" xmlns="http://www.w3.org/2000/svg"
 width="1284.000000pt" height="1284.000000pt" viewBox="0 0 1284.000000 1284.000000"
 preserveAspectRatio="xMidYMid meet">
<metadata>
Created by potrace 1.14, written by Peter Selinger 2001-2017
</metadata>
<g transform="translate(0.000000,1284.000000) scale(0.100000,-0.100000)"
fill="#000000" stroke="none">
<path d="M6275 10641 c-128 -32 -238 -159 -222 -257 7 -42 20 -60 58 -79 98
-51 189 -9 189 87 0 33 1 34 35 30 40 -5 81 -39 91 -76 29 -116 -100 -207
-366 -256 -124 -23 -355 -107 -512 -186 -285 -143 -539 -357 -688 -577 l-32
-49 42 31 c47 34 129 66 275 110 275 81 362 135 386 240 14 65 -11 102 -73
106 -55 3 95 99 218 139 67 22 103 27 199 26 88 0 103 -2 220 -30 218 -51 230
-52 294 -34 95 28 134 101 110 204 -3 12 11 15 86 15 179 0 325 -34 483 -111
158 -77 253 -190 268 -318 9 -73 -1 -109 -26 -101 -65 21 -110 3 -139 -54 -59
-115 16 -223 148 -215 130 7 242 123 242 249 1 99 -44 224 -104 292 l-20 23
28 22 c73 57 65 145 -20 230 -77 77 -178 101 -392 93 -70 -2 -137 -6 -148 -8
-11 -3 -47 -8 -80 -11 -33 -4 -82 -11 -110 -16 -27 -5 -82 -16 -122 -23 l-72
-14 39 46 c50 60 70 116 70 203 0 158 -110 274 -263 276 -34 0 -75 -3 -92 -7z"/>
<path d="M6040 9338 l0 -213 -77 -50 c-209 -136 -373 -351 -452 -591 -29 -89
-34 -111 -48 -209 -10 -73 -6 -245 7 -328 92 -548 578 -948 1135 -932 66 2
130 6 141 8 12 3 39 8 60 11 107 17 339 117 418 180 l28 22 -19 31 c-10 17
-33 56 -51 87 -18 30 -36 58 -40 60 -4 3 -43 -18 -87 -45 -151 -93 -328 -141
-500 -134 -55 2 -107 6 -115 8 -8 2 -42 9 -74 16 -178 39 -372 164 -504 326
-81 100 -163 300 -178 438 -13 113 -12 150 10 294 25 161 152 379 294 501 l57
50 -3 -167 -2 -166 36 43 c93 109 257 200 399 219 222 31 409 -31 565 -187 92
-91 144 -176 175 -283 61 -212 14 -437 -130 -610 -101 -122 -235 -200 -400
-232 -37 -7 -179 -7 -220 1 -130 24 -266 97 -366 197 l-59 60 0 -86 0 -87 58
-45 c53 -42 155 -97 227 -123 117 -41 328 -50 445 -19 289 78 514 314 575 603
11 52 13 218 3 284 -40 259 -242 509 -487 601 -203 76 -413 68 -610 -22 -46
-22 -86 -37 -89 -34 -2 2 -5 30 -6 61 l-1 58 60 27 c234 106 471 103 763 -8 9
-4 12 23 12 114 l0 120 -73 22 c-138 41 -231 52 -381 47 -125 -4 -226 -22
-321 -55 -30 -11 -55 -16 -56 -13 0 4 -1 86 -2 182 l-2 175 -57 3 -58 3 0
-213z"/>
<path d="M7731 9401 c-131 -41 -202 -173 -152 -286 26 -60 72 -88 129 -81 99
13 146 72 122 156 -5 16 -6 30 -4 30 12 0 93 -46 136 -76 135 -96 284 -313
355 -519 52 -148 70 -272 68 -448 -2 -89 -5 -175 -8 -192 -3 -16 -8 -52 -12
-80 -26 -213 -121 -493 -234 -697 -173 -311 -465 -602 -749 -747 -47 -24 -58
-37 -14 -18 76 34 312 169 357 204 172 136 299 206 381 209 59 2 126 -23 143
-54 10 -18 8 -20 -36 -17 -57 4 -88 -14 -103 -60 -36 -108 93 -202 210 -153
84 36 141 120 148 220 10 135 -105 244 -271 256 l-68 5 52 28 c135 74 251 192
264 269 7 45 -47 100 -99 100 -26 0 -18 13 40 60 200 162 296 346 234 448 -24
40 -88 71 -136 66 l-34 -3 24 32 c92 125 145 311 140 501 -4 151 -58 274 -129
292 -32 8 -93 -9 -121 -33 -68 -60 -57 -65 -99 49 -71 195 -174 378 -258 458
-82 79 -185 109 -276 81z"/>
<path d="M4397 9125 c-85 -29 -157 -100 -185 -182 -15 -44 -9 -142 11 -180 49
-93 185 -102 218 -15 22 57 21 76 -5 115 -28 41 -21 45 30 21 52 -25 64 -64
58 -185 -2 -56 -6 -105 -9 -108 -2 -4 -7 -38 -10 -76 -4 -38 -9 -78 -12 -90
-13 -51 -11 -405 3 -498 30 -214 104 -449 204 -647 22 -44 40 -82 40 -84 0 -3
-15 3 -32 13 -64 37 -148 33 -202 -10 -59 -46 -77 -157 -37 -222 37 -60 122
-83 167 -46 21 17 46 68 41 82 -2 7 0 20 4 29 8 15 13 16 48 3 81 -28 140 -71
256 -189 233 -234 422 -365 715 -494 73 -32 238 -85 305 -98 11 -2 31 -6 45
-9 58 -12 77 -16 110 -19 19 -3 62 -8 95 -11 124 -15 346 -8 485 15 30 5 71
12 90 15 37 7 179 43 195 50 6 3 -8 2 -30 -1 -22 -3 -53 -8 -70 -11 -16 -2
-41 -6 -55 -9 -80 -14 -174 -19 -320 -18 -192 1 -287 20 -401 80 -62 33 -159
121 -159 144 0 5 14 11 31 15 48 11 96 66 104 120 16 103 -60 177 -179 176
-76 -1 -99 -6 -148 -29 -66 -33 -108 -101 -108 -178 0 -44 33 -146 59 -182 11
-17 21 -33 21 -36 0 -15 -248 118 -335 180 -208 148 -328 347 -349 579 -10
111 -16 180 -21 270 -24 402 -91 598 -228 664 -50 24 -113 27 -161 7 -50 -21
-104 -103 -109 -164 -3 -44 -15 -21 -25 49 -21 143 -2 316 62 576 19 76 38
156 42 178 4 22 8 49 11 60 12 65 14 169 4 212 -13 52 -53 103 -101 128 -41
21 -117 26 -163 10z"/>
<path d="M6847 5232 c-11 -2 -17 -13 -18 -30 -1 -78 -4 -782 -2 -782 1 0 12
21 25 47 113 227 401 293 595 136 125 -101 175 -286 118 -440 -38 -104 -138
-202 -240 -234 -93 -29 -234 -14 -315 34 -51 30 -133 117 -154 165 -11 23 -22
42 -25 42 -3 0 -5 -52 -5 -115 2 -133 2 -134 97 -196 201 -131 474 -103 642
66 105 105 156 225 158 370 3 284 -208 512 -489 529 -65 4 -181 -14 -236 -37
l-36 -15 2 220 c0 121 -2 225 -6 231 -6 10 -75 16 -111 9z"/>
<path d="M10410 5230 l-35 -5 0 -70 0 -70 68 -2 67 -3 0 78 0 77 -32 0 c-18 0
-49 -2 -68 -5z"/>
<path d="M4610 4520 c0 -703 0 -710 20 -711 11 -1 29 -1 40 -1 11 0 32 0 48 1
l27 1 0 710 0 710 -67 0 -68 0 0 -710z"/>
<path d="M1840 4813 c-143 -29 -290 -139 -357 -268 -81 -154 -76 -360 12 -505
36 -60 118 -145 175 -183 155 -103 388 -105 553 -4 l39 23 -56 42 -55 42 -73
-24 c-213 -71 -427 32 -498 240 -30 87 -23 210 18 295 38 80 110 150 190 186
49 23 72 26 157 27 88 1 107 -2 156 -25 l56 -27 52 40 c28 21 51 43 51 48 0 5
-20 21 -45 36 -104 60 -250 83 -375 57z"/>
<path d="M2925 4818 c-201 -30 -383 -202 -425 -401 -46 -221 44 -436 234 -559
112 -72 270 -99 401 -69 71 17 162 65 215 112 l45 41 3 -65 3 -65 49 -4 c93
-6 86 -32 85 297 -1 272 -3 294 -24 359 -79 245 -326 394 -586 354z m193 -143
c129 -39 224 -131 263 -256 54 -174 -12 -351 -166 -448 -61 -38 -111 -53 -193
-56 -256 -11 -442 216 -388 474 45 215 272 349 484 286z"/>
<path d="M4188 4825 c-1 -1 -21 -5 -43 -8 -56 -8 -113 -34 -161 -73 l-41 -33
-49 44 c-27 24 -52 44 -55 45 -4 0 -7 -223 -7 -495 0 -366 3 -495 11 -496 14
-1 96 -1 114 0 8 1 11 88 11 332 1 339 3 375 30 419 54 87 118 123 221 126
l74 2 22 39 c41 72 41 80 -2 88 -52 8 -120 14 -125 10z"/>
<path d="M5418 4814 c-185 -35 -354 -194 -401 -376 -19 -74 -19 -202 0 -274
33 -130 153 -274 275 -332 191 -92 402 -67 564 64 l54 44 0 -64 c0 -73 1 -74
93 -68 l47 4 -3 291 c-2 161 -7 303 -10 316 -38 144 -130 267 -256 341 -99 57
-239 78 -363 54z m223 -144 c117 -36 222 -142 256 -259 19 -67 13 -197 -12
-256 -42 -98 -128 -181 -225 -220 -56 -22 -177 -27 -242 -10 -238 63 -354 340
-237 565 27 52 108 132 157 156 97 47 203 55 303 24z"/>
<path d="M9429 4808 c-196 -49 -352 -212 -390 -406 -15 -81 -6 -202 21 -275
65 -174 224 -311 400 -343 68 -12 185 -5 251 16 67 20 169 80 203 118 10 12
22 20 26 17 4 -2 6 -31 5 -65 -1 -44 2 -60 12 -61 7 0 29 -1 48 -1 84 0 76
-32 75 275 -1 149 -6 297 -11 327 -23 123 -121 265 -235 337 -113 72 -270 96
-405 61z m238 -134 c159 -48 272 -198 275 -363 4 -283 -267 -471 -536 -371
-73 28 -173 122 -205 194 -83 189 -16 401 158 504 86 50 211 65 308 36z"/>
<path d="M8003 4800 c-18 -5 -19 -19 -17 -355 1 -299 4 -356 18 -395 41 -110
112 -189 212 -235 45 -21 78 -28 140 -31 117 -5 169 11 261 78 28 21 53 34 55
30 2 -4 24 -25 51 -46 l47 -38 1 33 c3 172 0 951 -5 956 -9 9 -117 9 -123 -1
-3 -5 -7 -162 -7 -350 -1 -327 -2 -343 -23 -381 -49 -93 -131 -145 -229 -146
-33 -1 -76 6 -96 14 -49 20 -115 82 -141 131 -21 40 -22 54 -25 389 -2 191 -6
347 -10 348 -34 4 -93 3 -109 -1z"/>
<path d="M10387 4800 c-9 -4 -12 -117 -12 -497 l0 -493 37 -1 c21 -1 50 -1 66
-2 l27 -1 3 497 c2 394 0 497 -10 498 -45 4 -100 3 -111 -1z"/>
<path d="M10792 4802 c-21 -3 -23 -8 -21 -68 l2 -64 41 -1 c23 0 114 -1 204
-1 159 0 163 0 156 -20 -3 -11 -50 -109 -104 -217 -193 -387 -301 -613 -297
-617 4 -4 315 -7 552 -5 l91 1 0 65 c0 63 0 65 -25 66 -14 0 -113 1 -218 1
l-193 0 15 27 c45 81 405 825 401 829 -6 5 -568 9 -604 4z"/>
<path d="M5382 2793 c-1 -419 -5 -460 -52 -494 -14 -10 -37 -20 -51 -23 -32
-5 -101 25 -121 52 -14 21 -14 21 -46 -4 -18 -14 -32 -30 -32 -35 0 -20 70
-76 108 -87 135 -41 251 21 277 146 5 24 10 724 6 815 -1 13 -10 17 -45 17
l-43 0 -1 -387z"/>
<path d="M6440 3070 c-11 -11 -20 -29 -20 -40 0 -28 43 -69 66 -65 11 2 22 4
26 4 16 2 38 34 38 57 0 31 -33 64 -65 64 -14 0 -34 -9 -45 -20z"/>
<path d="M5912 2819 c-219 -28 -340 -260 -240 -458 72 -141 244 -207 393 -150
78 29 162 112 189 187 25 70 19 179 -12 243 -60 124 -194 195 -330 178z m136
-96 c139 -66 178 -260 74 -375 -145 -160 -392 -61 -392 157 0 175 167 290 318
218z"/>
<path d="M6970 2824 c-8 -2 -36 -6 -62 -9 -35 -4 -62 -17 -98 -46 -79 -62
-120 -165 -114 -285 8 -167 104 -280 247 -291 90 -7 140 10 194 64 25 26 44
40 43 32 -1 -8 -2 -28 -1 -45 1 -30 3 -31 41 -31 30 0 40 4 41 16 1 21 1 463
0 524 l-1 48 -42 -3 -43 -3 2 -44 1 -45 -23 31 c-14 17 -36 38 -51 48 -30 19
-110 42 -134 39z m92 -93 c32 -12 73 -52 95 -94 13 -23 17 -56 17 -122 0 -105
-23 -168 -77 -209 -28 -21 -110 -49 -119 -41 -2 2 -18 5 -36 8 -90 14 -152
101 -153 212 0 113 16 161 72 214 46 45 132 58 201 32z"/>
<path d="M7576 2818 c-108 -23 -166 -136 -121 -232 17 -34 86 -80 169 -112 70
-27 116 -73 116 -115 -1 -58 -39 -89 -110 -89 -51 0 -92 20 -120 60 -25 36
-26 36 -68 10 -31 -19 -32 -21 -18 -48 35 -67 104 -102 198 -102 143 1 230 96
203 222 -15 69 -55 100 -208 158 -63 25 -87 50 -87 93 0 32 39 76 70 78 71 5
81 1 119 -39 36 -38 37 -38 66 -22 40 22 41 39 7 78 -49 54 -134 78 -216 60z"/>
<path d="M6444 2508 l1 -292 30 -2 c17 -1 35 1 42 3 8 3 11 84 12 294 l0 289
-43 0 -43 0 1 -292z"/>
</g>
</svg>
