<?xml version="1.0" standalone="no"?>
<!DOCTYPE svg PUBLIC "-//W3C//DTD SVG 20010904//EN"
 "http://www.w3.org/TR/2001/REC-SVG-20010904/DTD/svg10.dtd">
<svg version="1.0" xmlns="http://www.w3.org/2000/svg"
 width="1284.000000pt" height="1222.000000pt" viewBox="0 0 1284.000000 1222.000000"
 preserveAspectRatio="xMidYMid meet">
<metadata>
Created by potrace 1.16, written by Peter Selinger 2001-2019
</metadata>
<g transform="translate(0.000000,1222.000000) scale(0.100000,-0.100000)"
fill="#000000" stroke="none">
<path d="M6233 10323 c-53 -18 -138 -93 -163 -144 -22 -42 -26 -118 -9 -151
15 -28 86 -58 141 -58 40 0 50 4 72 31 18 21 26 42 26 70 0 34 3 39 23 39 57
0 117 -71 103 -123 -22 -89 -119 -145 -336 -196 -195 -45 -347 -98 -516 -181
-304 -148 -561 -360 -715 -589 -52 -76 -59 -107 -14 -52 36 42 122 81 305 136
247 75 331 120 369 199 40 82 22 138 -48 152 l-32 7 58 38 c126 84 274 126
412 116 42 -3 137 -20 211 -38 81 -19 164 -32 206 -33 61 -1 76 3 112 26 56
37 75 77 70 144 l-4 52 35 5 c60 7 223 -12 327 -38 184 -47 353 -150 420 -257
33 -52 57 -150 49 -199 -6 -34 -9 -38 -25 -29 -37 20 -79 11 -117 -24 -33 -30
-37 -39 -41 -93 -5 -78 14 -118 71 -144 109 -49 248 6 312 122 25 46 29 64 28
124 -1 85 -31 179 -79 254 -35 53 -35 53 -15 68 28 19 51 65 51 100 -1 75 -87
176 -178 208 -63 23 -296 31 -433 15 -105 -12 -318 -46 -352 -56 -14 -4 -10 6
16 43 50 71 62 109 61 193 0 121 -50 206 -146 254 -44 22 -65 26 -132 25 -45
0 -100 -7 -123 -16z"/>
<path d="M6040 9031 l0 -209 -87 -58 c-105 -69 -240 -202 -305 -300 -466 -701
-55 -1634 772 -1755 124 -18 321 -7 445 25 101 26 312 122 368 168 l28 23 -47
75 c-25 41 -52 85 -60 97 l-14 22 -78 -49 c-293 -189 -675 -188 -969 3 -184
119 -312 293 -380 514 -23 77 -26 106 -27 233 0 111 4 161 18 214 46 172 124
307 250 431 l81 80 3 -157 c1 -87 4 -158 5 -158 1 0 36 33 79 74 138 133 298
193 492 184 423 -21 718 -440 595 -845 -32 -105 -84 -190 -168 -274 -135 -135
-278 -194 -466 -194 -129 1 -191 17 -309 78 -56 29 -102 63 -153 114 l-73 73
0 -94 0 -94 53 -40 c77 -58 151 -97 242 -128 66 -22 103 -28 210 -32 160 -6
252 14 395 84 79 39 109 62 186 138 153 152 222 306 231 517 14 313 -130 577
-398 728 -218 122 -505 129 -728 17 l-71 -36 0 60 0 61 55 25 c207 95 432 103
663 25 l112 -38 0 123 0 123 -77 25 c-124 38 -216 49 -380 43 -142 -4 -195
-14 -350 -62 l-23 -7 0 181 0 181 -60 0 -60 0 0 -209z"/>
<path d="M7731 9099 c-134 -41 -209 -195 -151 -309 11 -22 33 -46 50 -55 37
-19 103 -19 144 0 56 27 83 104 55 157 -10 18 -4 16 48 -11 140 -75 263 -211
361 -400 105 -201 142 -358 142 -593 -1 -494 -167 -946 -485 -1319 -131 -154
-361 -337 -529 -421 -69 -35 -71 -36 -64 -44 8 -7 212 96 322 164 50 30 134
87 186 126 142 105 227 146 301 146 60 0 104 -15 128 -44 12 -14 8 -16 -35
-16 -52 -1 -74 -12 -92 -47 -33 -61 1 -142 75 -175 131 -58 285 68 285 233 0
136 -98 229 -266 254 l-49 7 44 26 c147 86 249 200 249 277 0 32 -50 85 -79
85 -37 0 -30 16 31 65 85 70 175 177 209 249 35 74 39 154 10 202 -22 35 -75
64 -120 64 -17 0 -31 2 -31 4 0 3 13 25 30 49 79 117 126 311 117 482 -7 123
-30 196 -78 247 -30 32 -42 38 -78 38 -50 0 -74 -11 -122 -56 l-35 -34 -18 57
c-57 179 -165 385 -254 483 -85 94 -206 138 -301 109z"/>
<path d="M4364 8806 c-58 -27 -114 -81 -140 -134 -10 -21 -20 -68 -22 -108 -6
-110 37 -177 124 -191 95 -16 165 88 119 177 -14 26 -14 30 -1 30 8 0 28 -11
43 -24 28 -24 28 -25 28 -143 -1 -65 -9 -179 -18 -253 -22 -172 -22 -441 -2
-570 33 -204 92 -390 180 -577 30 -62 53 -113 52 -113 -1 0 -20 7 -42 15 -119
43 -225 -18 -241 -137 -13 -94 39 -167 124 -176 66 -6 102 23 109 91 7 57 13
58 102 15 51 -26 100 -66 221 -183 85 -82 191 -176 234 -209 448 -337 964
-471 1500 -390 102 15 275 55 317 74 28 12 24 12 -191 -21 -171 -27 -408 -29
-525 -5 -111 23 -230 83 -288 145 -50 53 -57 71 -31 71 29 0 81 40 98 74 38
81 8 172 -69 211 -52 26 -162 27 -227 2 -58 -22 -115 -83 -124 -132 -12 -65 2
-154 34 -216 l30 -58 -101 51 c-264 132 -403 257 -492 443 -58 121 -73 195
-90 452 -29 418 -67 586 -156 687 -68 78 -193 103 -269 52 -36 -24 -80 -94
-80 -129 0 -9 -4 -18 -9 -21 -25 -16 -28 233 -6 373 9 52 31 156 50 230 101
405 88 545 -57 606 -54 22 -124 19 -184 -9z"/>
<path d="M4610 4210 l0 -720 70 0 70 0 0 720 0 720 -70 0 -70 0 0 -720z"/>
<path d="M6820 4515 c0 -228 3 -415 8 -415 4 0 18 25 31 55 32 74 129 165 208
195 80 31 196 31 275 1 68 -26 154 -101 193 -167 14 -24 33 -77 41 -117 36
-171 -46 -339 -208 -424 -49 -26 -62 -28 -163 -28 -102 0 -114 2 -168 30 -70
35 -157 124 -183 189 -11 25 -22 46 -26 46 -5 0 -8 -58 -8 -130 l0 -130 53
-41 c123 -99 280 -137 431 -106 106 22 175 57 251 129 108 100 160 205 172
343 22 264 -148 501 -403 561 -86 20 -214 14 -296 -15 l-58 -20 0 230 0 229
-75 0 -75 0 0 -415z"/>
<path d="M10370 4850 l0 -80 70 0 70 0 0 80 0 80 -70 0 -70 0 0 -80z"/>
<path d="M1823 4505 c-181 -39 -344 -202 -388 -386 -29 -124 -16 -244 37 -359
40 -84 158 -203 242 -243 148 -72 323 -72 466 0 41 21 75 43 77 48 1 6 -22 29
-53 52 l-55 42 -47 -22 c-39 -18 -65 -22 -157 -22 -101 0 -114 2 -164 28 -197
104 -272 327 -176 523 35 71 128 156 202 185 87 33 197 31 286 -5 l68 -28 55
43 c30 23 53 47 51 53 -2 6 -36 27 -76 48 -113 56 -238 71 -368 43z"/>
<path d="M2920 4513 c-184 -31 -348 -172 -411 -354 -32 -91 -32 -238 0 -332
85 -254 347 -407 605 -354 99 20 170 55 235 113 l51 46 0 -71 0 -71 70 0 70 0
0 283 c0 315 -7 366 -63 471 -65 124 -201 228 -338 261 -60 14 -162 18 -219 8z
m222 -160 c98 -34 196 -133 233 -236 14 -36 19 -77 19 -134 0 -73 -4 -89 -37
-157 -43 -86 -102 -145 -187 -185 -48 -23 -68 -26 -160 -26 -93 0 -112 3 -162
27 -74 34 -152 112 -186 186 -24 50 -27 69 -27 162 0 93 3 112 27 162 84 181
290 267 480 201z"/>
<path d="M4110 4504 c-30 -8 -81 -32 -113 -54 l-57 -39 -38 31 c-20 18 -45 39
-54 47 -17 13 -18 -11 -18 -492 l0 -507 70 0 69 0 3 353 c3 389 2 381 72 455
51 55 101 76 182 76 l70 -1 32 58 c18 32 32 60 32 62 0 9 -100 27 -148 26 -26
0 -72 -7 -102 -15z"/>
<path d="M5411 4509 c-86 -17 -189 -74 -261 -147 -108 -108 -150 -212 -150
-372 0 -154 42 -260 144 -365 110 -112 223 -159 381 -159 143 0 235 34 353
130 l32 27 0 -67 0 -66 70 0 70 0 0 285 c0 168 -4 306 -11 337 -39 185 -200
348 -391 393 -69 16 -168 18 -237 4z m180 -139 c81 -15 154 -57 214 -122 176
-189 119 -481 -117 -605 -49 -26 -62 -28 -163 -28 -101 0 -115 2 -168 28 -74
37 -147 110 -184 184 -25 53 -28 68 -28 163 0 96 3 110 29 165 54 108 151 185
266 211 70 16 86 16 151 4z"/>
<path d="M9426 4505 c-90 -23 -174 -73 -246 -145 -108 -109 -150 -213 -150
-370 0 -100 16 -166 59 -247 155 -291 540 -370 799 -164 l52 41 0 -65 0 -65
70 0 70 0 0 293 c0 231 -3 305 -15 352 -42 159 -167 294 -330 354 -78 30 -225
37 -309 16z m271 -156 c76 -29 164 -113 205 -197 30 -61 33 -74 33 -162 0 -82
-4 -103 -27 -152 -35 -76 -104 -148 -181 -189 -60 -33 -66 -34 -172 -34 -100
0 -115 3 -166 27 -123 61 -208 187 -217 323 -18 285 255 484 525 384z"/>
<path d="M7982 4132 l3 -368 38 -76 c43 -88 102 -146 187 -187 49 -23 67 -26
170 -26 107 0 119 2 170 28 30 16 67 40 82 54 l27 26 48 -40 c26 -22 54 -43
61 -47 9 -6 12 97 12 498 l0 506 -75 0 -75 0 0 -345 c0 -373 -1 -380 -56 -452
-54 -72 -168 -109 -256 -84 -65 18 -129 70 -163 132 l-30 54 -3 348 -3 347
-70 0 -70 0 3 -368z"/>
<path d="M10370 3995 l0 -505 70 0 70 0 0 505 0 505 -70 0 -70 0 0 -505z"/>
<path d="M10770 4425 l0 -75 200 0 c110 0 200 -4 200 -9 0 -4 -92 -195 -205
-423 -113 -228 -205 -418 -205 -421 0 -4 149 -7 330 -7 l330 0 0 75 0 75 -214
0 -215 0 206 418 c112 229 207 423 210 430 4 9 -63 12 -316 12 l-321 0 0 -75z"/>
<path d="M5380 2501 c0 -202 -4 -393 -10 -422 -21 -115 -114 -144 -202 -62
l-26 25 -36 -28 c-20 -16 -36 -31 -36 -34 0 -13 77 -80 103 -89 40 -15 152
-14 190 3 40 17 71 50 94 101 16 36 18 82 21 458 l3 417 -50 0 -51 0 0 -369z"/>
<path d="M5883 2510 c-96 -20 -179 -88 -222 -179 -34 -74 -36 -192 -4 -262 52
-116 164 -189 288 -189 88 0 131 12 191 53 171 115 188 362 33 501 -74 66
-187 97 -286 76z m138 -91 c112 -38 180 -164 149 -279 -25 -97 -101 -165 -198
-177 -134 -15 -255 116 -239 259 18 147 155 241 288 197z"/>
<path d="M6889 2507 c-70 -20 -123 -68 -161 -145 -31 -62 -33 -74 -33 -167 0
-82 4 -109 23 -149 54 -118 126 -166 249 -166 85 0 126 14 171 59 l32 33 0
-36 0 -36 50 0 50 0 0 295 0 295 -50 0 -50 0 0 -36 0 -37 -20 26 c-46 58 -172
89 -261 64z m179 -96 c75 -38 105 -99 105 -211 -1 -116 -37 -184 -118 -221
-49 -23 -94 -24 -142 -4 -73 31 -109 87 -119 184 -12 109 31 212 103 250 49
26 123 27 171 2z"/>
<path d="M7560 2509 c-94 -29 -141 -109 -120 -205 12 -51 63 -96 153 -131 39
-16 88 -44 110 -65 35 -33 39 -41 33 -69 -3 -18 -11 -38 -17 -45 -17 -21 -78
-36 -115 -29 -38 7 -104 59 -104 81 0 18 -3 18 -50 -6 -22 -11 -40 -26 -40
-34 0 -27 46 -80 89 -103 62 -32 178 -33 241 0 63 32 83 65 88 141 7 113 -29
154 -183 210 -111 40 -141 91 -86 147 22 21 39 29 66 29 44 0 88 -24 106 -57
7 -13 17 -23 22 -23 15 0 77 41 77 50 0 16 -62 80 -91 96 -37 19 -135 26 -179
13z"/>
<path d="M6440 2195 l0 -295 45 0 45 0 0 295 0 295 -45 0 -45 0 0 -295z"/>
</g>
</svg>
